<?xml version="1.0" encoding="utf-8"?>
<!-- Generator: Adobe Illustrator 16.0.0, SVG Export Plug-In . SVG Version: 6.00 Build 0)  -->
<!DOCTYPE svg PUBLIC "-//W3C//DTD SVG 1.1//EN" "http://www.w3.org/Graphics/SVG/1.1/DTD/svg11.dtd">
<svg version="1.1" id="Layer_1" xmlns="http://www.w3.org/2000/svg" xmlns:xlink="http://www.w3.org/1999/xlink" x="0px" y="0px"
	 width="595.279px" height="841.891px" viewBox="0 0 595.279 841.891" enable-background="new 0 0 595.279 841.891"
	 xml:space="preserve">
<path fill="#948F8F" d="M584.002,345.14c4.534-3.604,11.277-0.232,11.277,5.465v237.763c0,30.811-24.997,55.808-55.807,55.808
	H55.808C24.997,644.175,0,619.178,0,588.367V350.721c0-5.813,6.627-9.069,11.277-5.465c26.044,20.23,60.574,45.925,179.166,132.078
	c24.531,17.905,65.922,55.575,107.196,55.343c41.507,0.349,83.711-38.136,107.313-55.343
	C523.544,391.181,557.959,365.37,584.002,345.14z M297.64,495.355c26.974,0.465,65.807-33.95,85.339-48.135
	c154.285-111.963,166.027-121.729,201.604-149.634c6.744-5.231,10.696-13.37,10.696-21.974v-22.09
	c0-30.811-24.997-55.808-55.807-55.808H55.808C24.997,197.715,0,222.712,0,253.522v22.09c0,8.604,3.953,16.626,10.696,21.974
	c35.577,27.788,47.32,37.67,201.604,149.634C231.834,461.405,270.666,495.82,297.64,495.355L297.64,495.355z"/>
</svg>
