<?xml version="1.0" encoding="UTF-8" standalone="no"?>
<svg width="1280px" height="159px" viewBox="0 0 1280 159" version="1.1" xmlns="http://www.w3.org/2000/svg" xmlns:xlink="http://www.w3.org/1999/xlink">
    <!-- Generator: Sketch 42 (36781) - http://www.bohemiancoding.com/sketch -->
    <title>footer graphic</title>
    <desc>Created with Sketch.</desc>
    <defs>
        <polygon id="path-1" points="0 0 1280 0 1280 159 0 159"></polygon>
    </defs>
    <g id="Footer" stroke="none" stroke-width="1" fill="none" fill-rule="evenodd">
        <g id="footer-graphic">
            <path d="M1280,159 C1280,71.428934 1209.11392,0.807106599 1121.21519,0.807106599 L937.316456,0.807106599 C927.675949,0.807106599 918.521519,3.95482234 911.392405,10.4923858 C904.263291,17.0299492 894.460759,20.9847716 884.820253,20.9847716 L801.944304,20.9847716 C783.878481,20.9847716 767.027848,27.0380711 754.227848,38.7411168 C741.427848,50.4441624 723.686076,57.3045685 705.620253,57.3045685 L599.493671,57.3045685 C571.301266,57.3045685 543.918987,67.9583756 523.341772,87.1675127 C502.197468,106.860914 473.275949,117.837563 443.220253,117.837563 L429.367089,117.837563 C408.141772,117.837563 388.293671,126.070051 372.658228,140.436548 L351.594937,159 L1280,159 Z" id="Fill-1" fill="#B5D2EE"></path>
            <path d="M1260.55696,139.629442 C1238.35949,117.514721 1207.6557,104.923858 1176.3038,104.923858 L1086.37975,104.923858 L1086.37975,159 L1280,159 L1260.55696,139.629442 Z" id="Fill-3" fill="#000000"></path>
            <path d="M763.949367,122.680203 L750.177215,122.680203 L750.177215,92.0101523 C754.875949,92.0101523 759.493671,91.4451777 763.949367,90.3959391 L763.949367,122.680203 Z" id="Fill-5" fill="#000000"></path>
            <path d="M983.493671,58.1116751 C1011.11899,58.1116751 1036.88101,68.6040609 1056.40506,88.1360406 L1056.40506,123.48731 L983.493671,123.48731 L983.493671,58.1116751 Z" id="Fill-7" fill="#000000"></path>
            <polygon id="Fill-9" fill="#000000" points="844.151899 57.3045685 844.151899 68.6040609 832.810127 57.3045685"></polygon>
            <path d="M481.21519,159 L444.759494,159 C458.04557,159 470.602532,154.480203 481.21519,146.893401 L481.21519,159 Z" id="Fill-11" fill="#000000"></path>
            <polygon id="Fill-13" fill="#FFFFFF" points="696.708861 25.8274112 696.708861 33.0913706 688.607595 33.0913706 688.607595 159 727.493671 159 727.493671 33.8984772 731.544304 33.8984772 731.544304 25.8274112"></polygon>
            <polygon id="Fill-15" fill="#FFFFFF" points="789.873418 122.680203 735.594937 122.680203 772.050633 159 789.873418 159"></polygon>
            <mask id="mask-2" fill="white">
                <use xlink:href="#path-1"></use>
            </mask>
            <g id="Clip-18"></g>
            <polygon id="Fill-17" fill="#FFFFFF" mask="url(#mask-2)" points="763.949367 73.4467005 789.873418 73.4467005 789.873418 122.680203 763.949367 122.680203"></polygon>
            <polygon id="Fill-19" fill="#D6D6D6" mask="url(#mask-2)" points="768 79.0964467 789.873418 79.0964467 789.873418 80.7106599 768 80.7106599"></polygon>
            <polygon id="Fill-20" fill="#D6D6D6" mask="url(#mask-2)" points="768 83.9390863 789.873418 83.9390863 789.873418 85.5532995 768 85.5532995"></polygon>
            <polygon id="Fill-21" fill="#D6D6D6" mask="url(#mask-2)" points="768 88.7817259 789.873418 88.7817259 789.873418 90.3959391 768 90.3959391"></polygon>
            <polygon id="Fill-22" fill="#D6D6D6" mask="url(#mask-2)" points="768 93.6243655 789.873418 93.6243655 789.873418 95.2385787 768 95.2385787"></polygon>
            <polygon id="Fill-23" fill="#D6D6D6" mask="url(#mask-2)" points="768 98.4670051 789.873418 98.4670051 789.873418 100.081218 768 100.081218"></polygon>
            <polygon id="Fill-24" fill="#D6D6D6" mask="url(#mask-2)" points="768 103.309645 789.873418 103.309645 789.873418 104.923858 768 104.923858"></polygon>
            <polygon id="Fill-25" fill="#D6D6D6" mask="url(#mask-2)" points="768 108.152284 789.873418 108.152284 789.873418 109.766497 768 109.766497"></polygon>
            <polygon id="Fill-26" fill="#D6D6D6" mask="url(#mask-2)" points="768 112.994924 789.873418 112.994924 789.873418 114.609137 768 114.609137"></polygon>
            <polygon id="Fill-27" fill="#FFFFFF" mask="url(#mask-2)" points="771.240506 68.6040609 800.405063 68.6040609 800.405063 73.4467005 771.240506 73.4467005"></polygon>
            <polygon id="Fill-28" fill="#9ED79F" mask="url(#mask-2)" points="771.240506 68.6040609 786.632911 53.2690355 800.405063 53.2690355 800.405063 68.6040609"></polygon>
            <polygon id="Fill-29" fill="#1F67AC" mask="url(#mask-2)" points="844.151899 68.6040609 828.759494 53.2690355 800.405063 53.2690355 800.405063 68.6040609"></polygon>
            <polygon id="Fill-30" fill="#9ED79F" mask="url(#mask-2)" points="809.316456 63.7614213 809.316456 58.9187817 804.455696 58.9187817"></polygon>
            <polygon id="Fill-31" fill="#9ED79F" mask="url(#mask-2)" points="819.848101 63.7614213 819.848101 58.9187817 814.987342 58.9187817"></polygon>
            <polygon id="Fill-32" fill="#9ED79F" mask="url(#mask-2)" points="830.379747 63.7614213 830.379747 58.9187817 825.518987 58.9187817"></polygon>
            <polygon id="Fill-33" fill="#FFFFFF" mask="url(#mask-2)" points="786.632911 50.8477157 800.405063 50.8477157 800.405063 53.2690355 786.632911 53.2690355"></polygon>
            <polygon id="Fill-34" fill="#FFFFFF" mask="url(#mask-2)" points="870.886076 137.208122 826.329114 92.8172589 870.886076 92.8172589"></polygon>
            <polygon id="Fill-35" fill="#D6D6D6" mask="url(#mask-2)" points="862.78481 97.6598985 864.405063 97.6598985 864.405063 103.309645 862.78481 103.309645"></polygon>
            <polygon id="Fill-36" fill="#D6D6D6" mask="url(#mask-2)" points="856.303797 97.6598985 857.924051 97.6598985 857.924051 103.309645 856.303797 103.309645"></polygon>
            <polygon id="Fill-37" fill="#D6D6D6" mask="url(#mask-2)" points="849.822785 97.6598985 851.443038 97.6598985 851.443038 103.309645 849.822785 103.309645"></polygon>
            <polygon id="Fill-38" fill="#D6D6D6" mask="url(#mask-2)" points="862.78481 108.152284 864.405063 108.152284 864.405063 113.80203 862.78481 113.80203"></polygon>
            <polygon id="Fill-39" fill="#D6D6D6" mask="url(#mask-2)" points="856.303797 108.152284 857.924051 108.152284 857.924051 113.80203 856.303797 113.80203"></polygon>
            <polygon id="Fill-40" fill="#D6D6D6" mask="url(#mask-2)" points="849.822785 108.152284 851.443038 108.152284 851.443038 113.80203 849.822785 113.80203"></polygon>
            <polygon id="Fill-41" fill="#D6D6D6" mask="url(#mask-2)" points="862.78481 118.64467 864.405063 118.64467 864.405063 124.294416 862.78481 124.294416"></polygon>
            <polygon id="Fill-42" fill="#D6D6D6" mask="url(#mask-2)" points="851.443038 119.451777 850.632911 118.64467 851.443038 118.64467"></polygon>
            <polygon id="Fill-43" fill="#D6D6D6" mask="url(#mask-2)" points="857.924051 124.294416 857.113924 124.294416 856.303797 123.48731 856.303797 118.64467 857.924051 118.64467"></polygon>
            <polygon id="Fill-44" fill="#1F67AC" mask="url(#mask-2)" points="566.278481 112.994924 583.291139 112.994924 583.291139 119.451777 566.278481 119.451777"></polygon>
            <polygon id="Fill-45" fill="#1F67AC" mask="url(#mask-2)" points="566.278481 101.695431 583.291139 101.695431 583.291139 108.152284 566.278481 108.152284"></polygon>
            <polygon id="Fill-46" fill="#1F67AC" mask="url(#mask-2)" points="566.278481 90.3959391 583.291139 90.3959391 583.291139 96.8527919 566.278481 96.8527919"></polygon>
            <polygon id="Fill-47" fill="#1F67AC" mask="url(#mask-2)" points="566.278481 79.0964467 566.278481 85.5532995 585.721519 85.5532995 579.240506 79.0964467"></polygon>
            <polygon id="Fill-48" fill="#D6D6D6" mask="url(#mask-2)" points="566.278481 108.152284 583.291139 108.152284 583.291139 112.994924 566.278481 112.994924"></polygon>
            <polygon id="Fill-49" fill="#D6D6D6" mask="url(#mask-2)" points="566.278481 96.8527919 583.291139 96.8527919 583.291139 101.695431 566.278481 101.695431"></polygon>
            <polygon id="Fill-50" fill="#D6D6D6" mask="url(#mask-2)" points="566.278481 85.5532995 580.050633 85.5532995 580.050633 90.3959391 566.278481 90.3959391"></polygon>
            <polygon id="Fill-51" fill="#9ED79F" mask="url(#mask-2)" points="566.278481 112.994924 566.278481 119.451777 521.721519 119.451777 528.202532 112.994924"></polygon>
            <polygon id="Fill-52" fill="#9ED79F" mask="url(#mask-2)" points="566.278481 101.695431 566.278481 108.152284 530.632911 108.152284 537.113924 101.695431"></polygon>
            <polygon id="Fill-53" fill="#9ED79F" mask="url(#mask-2)" points="566.278481 90.3959391 566.278481 96.8527919 537.924051 96.8527919 544.405063 90.3959391"></polygon>
            <polygon id="Fill-54" fill="#9ED79F" mask="url(#mask-2)" points="566.278481 79.0964467 566.278481 85.5532995 546.025316 85.5532995 552.506329 79.0964467"></polygon>
            <polygon id="Fill-55" fill="#FFFFFF" mask="url(#mask-2)" points="537.113924 108.152284 566.278481 108.152284 566.278481 112.994924 537.113924 112.994924"></polygon>
            <polygon id="Fill-56" fill="#FFFFFF" mask="url(#mask-2)" points="544.405063 96.8527919 566.278481 96.8527919 566.278481 101.695431 544.405063 101.695431"></polygon>
            <polygon id="Fill-57" fill="#FFFFFF" mask="url(#mask-2)" points="552.506329 85.5532995 566.278481 85.5532995 566.278481 90.3959391 552.506329 90.3959391"></polygon>
            <polygon id="Fill-58" fill="#FFFFFF" mask="url(#mask-2)" points="1066.12658 155.771574 1033.72152 123.48731 1025.62025 123.48731 1025.62025 92.8172589 1066.12658 92.8172589"></polygon>
            <polygon id="Fill-59" fill="#1F67AC" mask="url(#mask-2)" points="1066.12658 86.3604061 1066.12658 92.8172589 1087.18987 92.8172589 1080.70886 86.3604061"></polygon>
            <polygon id="Fill-60" fill="#9ED79F" mask="url(#mask-2)" points="1066.12658 86.3604061 1066.12658 92.8172589 1025.62025 92.8172589 1032.42532 86.3604061"></polygon>
            <polygon id="Fill-61" fill="#D6D6D6" mask="url(#mask-2)" points="1061.26582 96.8527919 1062.88608 96.8527919 1062.88608 102.502538 1061.26582 102.502538"></polygon>
            <polygon id="Fill-62" fill="#D6D6D6" mask="url(#mask-2)" points="1054.78481 96.8527919 1056.40506 96.8527919 1056.40506 102.502538 1054.78481 102.502538"></polygon>
            <polygon id="Fill-63" fill="#D6D6D6" mask="url(#mask-2)" points="1048.3038 96.8527919 1049.92405 96.8527919 1049.92405 102.502538 1048.3038 102.502538"></polygon>
            <polygon id="Fill-64" fill="#D6D6D6" mask="url(#mask-2)" points="1041.82278 96.8527919 1043.44304 96.8527919 1043.44304 102.502538 1041.82278 102.502538"></polygon>
            <polygon id="Fill-65" fill="#D6D6D6" mask="url(#mask-2)" points="1035.34177 96.8527919 1036.96203 96.8527919 1036.96203 102.502538 1035.34177 102.502538"></polygon>
            <polygon id="Fill-66" fill="#D6D6D6" mask="url(#mask-2)" points="1028.86076 96.8527919 1030.48101 96.8527919 1030.48101 102.502538 1028.86076 102.502538"></polygon>
            <polygon id="Fill-67" fill="#D6D6D6" mask="url(#mask-2)" points="1061.26582 107.345178 1062.88608 107.345178 1062.88608 112.994924 1061.26582 112.994924"></polygon>
            <polygon id="Fill-68" fill="#D6D6D6" mask="url(#mask-2)" points="1054.78481 107.345178 1056.40506 107.345178 1056.40506 112.994924 1054.78481 112.994924"></polygon>
            <polygon id="Fill-69" fill="#D6D6D6" mask="url(#mask-2)" points="1048.3038 107.345178 1049.92405 107.345178 1049.92405 112.994924 1048.3038 112.994924"></polygon>
            <polygon id="Fill-70" fill="#D6D6D6" mask="url(#mask-2)" points="1041.82278 107.345178 1043.44304 107.345178 1043.44304 112.994924 1041.82278 112.994924"></polygon>
            <polygon id="Fill-71" fill="#D6D6D6" mask="url(#mask-2)" points="1035.34177 107.345178 1036.96203 107.345178 1036.96203 112.994924 1035.34177 112.994924"></polygon>
            <polygon id="Fill-72" fill="#D6D6D6" mask="url(#mask-2)" points="1028.86076 107.345178 1030.48101 107.345178 1030.48101 112.994924 1028.86076 112.994924"></polygon>
            <polygon id="Fill-73" fill="#D6D6D6" mask="url(#mask-2)" points="1061.26582 117.837563 1062.88608 117.837563 1062.88608 123.48731 1061.26582 123.48731"></polygon>
            <polygon id="Fill-74" fill="#D6D6D6" mask="url(#mask-2)" points="1054.78481 117.837563 1056.40506 117.837563 1056.40506 123.48731 1054.78481 123.48731"></polygon>
            <polygon id="Fill-75" fill="#D6D6D6" mask="url(#mask-2)" points="1048.3038 117.837563 1049.92405 117.837563 1049.92405 123.48731 1048.3038 123.48731"></polygon>
            <polygon id="Fill-76" fill="#D6D6D6" mask="url(#mask-2)" points="1041.82278 117.837563 1043.44304 117.837563 1043.44304 123.48731 1041.82278 123.48731"></polygon>
            <polygon id="Fill-77" fill="#D6D6D6" mask="url(#mask-2)" points="1035.34177 117.837563 1036.96203 117.837563 1036.96203 123.48731 1035.34177 123.48731"></polygon>
            <polygon id="Fill-78" fill="#D6D6D6" mask="url(#mask-2)" points="1028.86076 117.837563 1030.48101 117.837563 1030.48101 123.48731 1028.86076 123.48731"></polygon>
            <polygon id="Fill-79" fill="#D6D6D6" mask="url(#mask-2)" points="628.658228 130.751269 688.607595 130.751269 688.607595 159 628.658228 159"></polygon>
            <polygon id="Fill-80" fill="#000000" mask="url(#mask-2)" points="628.658228 130.751269 688.607595 130.751269 688.607595 159 628.658228 159"></polygon>
            <path d="M628.658228,25.8274112 L628.658228,64.5685279 L614.886076,64.5685279 L614.886076,69.4111675 L594.632911,69.4111675 C588.394937,69.4111675 583.291139,74.4959391 583.291139,80.7106599 L583.291139,159 L628.658228,159 L628.658228,69.4111675 L654.582278,69.4111675 L654.582278,0 L628.658228,25.8274112 Z" id="Fill-81" fill="#FFFFFF" mask="url(#mask-2)"></path>
            <polygon id="Fill-82" fill="#FFFFFF" mask="url(#mask-2)" points="800.405063 39.5482234 802.025316 39.5482234 802.025316 50.8477157 800.405063 50.8477157"></polygon>
            <polygon id="Fill-83" fill="#1F67AC" mask="url(#mask-2)" points="802.025316 39.5482234 806.886076 39.5482234 806.886076 41.1624365 802.025316 41.1624365"></polygon>
            <polygon id="Fill-84" fill="#FFFFFF" mask="url(#mask-2)" points="814.177215 39.5482234 815.797468 39.5482234 815.797468 50.8477157 814.177215 50.8477157"></polygon>
            <polygon id="Fill-85" fill="#1F67AC" mask="url(#mask-2)" points="815.797468 39.5482234 820.658228 39.5482234 820.658228 41.1624365 815.797468 41.1624365"></polygon>
            <polygon id="Fill-86" fill="#FFFFFF" mask="url(#mask-2)" points="827.139241 39.5482234 828.759494 39.5482234 828.759494 50.8477157 827.139241 50.8477157"></polygon>
            <polygon id="Fill-87" fill="#1F67AC" mask="url(#mask-2)" points="828.759494 39.5482234 833.620253 39.5482234 833.620253 41.1624365 828.759494 41.1624365"></polygon>
            <polygon id="Fill-88" fill="#D6D6D6" mask="url(#mask-2)" points="622.987342 134.786802 624.607595 134.786802 624.607595 140.436548 622.987342 140.436548"></polygon>
            <polygon id="Fill-89" fill="#D6D6D6" mask="url(#mask-2)" points="616.506329 134.786802 618.126582 134.786802 618.126582 140.436548 616.506329 140.436548"></polygon>
            <polygon id="Fill-90" fill="#D6D6D6" mask="url(#mask-2)" points="610.025316 134.786802 611.64557 134.786802 611.64557 140.436548 610.025316 140.436548"></polygon>
            <polygon id="Fill-91" fill="#D6D6D6" mask="url(#mask-2)" points="622.987342 145.279188 624.607595 145.279188 624.607595 150.928934 622.987342 150.928934"></polygon>
            <polygon id="Fill-92" fill="#D6D6D6" mask="url(#mask-2)" points="616.506329 145.279188 618.126582 145.279188 618.126582 150.928934 616.506329 150.928934"></polygon>
            <polygon id="Fill-93" fill="#D6D6D6" mask="url(#mask-2)" points="610.025316 145.279188 611.64557 145.279188 611.64557 150.928934 610.025316 150.928934"></polygon>
            <polygon id="Fill-94" fill="#D6D6D6" mask="url(#mask-2)" points="735.594937 122.680203 750.177215 122.680203 750.177215 33.8984772 746.126582 33.8984772 746.126582 25.8274112 731.544304 25.8274112 731.544304 33.8984772 727.493671 33.8984772 727.493671 159 772.050633 159"></polygon>
            <polygon id="Fill-95" fill="#000000" mask="url(#mask-2)" points="504.708861 119.451777 537.924051 119.451777 537.924051 159 504.708861 159"></polygon>
            <polygon id="Fill-96" fill="#D6D6D6" mask="url(#mask-2)" points="504.708861 159 583.291139 159 583.291139 119.451777 504.708861 119.451777"></polygon>
            <polygon id="Fill-97" fill="#D6D6D6" mask="url(#mask-2)" points="696.708861 14.5279188 698.329114 14.5279188 698.329114 25.8274112 696.708861 25.8274112"></polygon>
            <polygon id="Fill-98" fill="#D6D6D6" mask="url(#mask-2)" points="701.56962 14.5279188 703.189873 14.5279188 703.189873 25.8274112 701.56962 25.8274112"></polygon>
            <path d="M862.78481,10.4923858 C857.194937,10.4923858 852.253165,15.415736 852.253165,20.9847716 L873.316456,20.9847716 C873.316456,15.415736 868.374684,10.4923858 862.78481,10.4923858" id="Fill-99" fill="#9ED79F" mask="url(#mask-2)"></path>
            <path d="M862.78481,10.4923858 L862.78481,20.9847716 L873.316456,20.9847716 C873.316456,15.415736 868.374684,10.4923858 862.78481,10.4923858" id="Fill-100" fill="#1F67AC" mask="url(#mask-2)"></path>
            <polygon id="Fill-101" fill="#FFFFFF" mask="url(#mask-2)" points="864.405063 89.5888325 864.405063 23.4060914 862.78481 23.4060914 862.78481 20.9847716 846.582278 20.9847716 846.582278 23.4060914 844.151899 23.4060914 844.151899 89.5888325"></polygon>
            <polygon id="Fill-102" fill="#D6D6D6" mask="url(#mask-2)" points="859.544304 27.4416244 861.164557 27.4416244 861.164557 33.0913706 859.544304 33.0913706"></polygon>
            <polygon id="Fill-103" fill="#D6D6D6" mask="url(#mask-2)" points="859.544304 36.319797 861.164557 36.319797 861.164557 41.9695431 859.544304 41.9695431"></polygon>
            <polygon id="Fill-104" fill="#D6D6D6" mask="url(#mask-2)" points="859.544304 45.1979695 861.164557 45.1979695 861.164557 50.8477157 859.544304 50.8477157"></polygon>
            <polygon id="Fill-105" fill="#D6D6D6" mask="url(#mask-2)" points="859.544304 54.0761421 861.164557 54.0761421 861.164557 59.7258883 859.544304 59.7258883"></polygon>
            <polygon id="Fill-106" fill="#D6D6D6" mask="url(#mask-2)" points="859.544304 62.9543147 861.164557 62.9543147 861.164557 68.6040609 859.544304 68.6040609"></polygon>
            <polygon id="Fill-107" fill="#D6D6D6" mask="url(#mask-2)" points="855.493671 27.4416244 857.113924 27.4416244 857.113924 33.0913706 855.493671 33.0913706"></polygon>
            <polygon id="Fill-108" fill="#D6D6D6" mask="url(#mask-2)" points="855.493671 36.319797 857.113924 36.319797 857.113924 41.9695431 855.493671 41.9695431"></polygon>
            <polygon id="Fill-109" fill="#D6D6D6" mask="url(#mask-2)" points="855.493671 45.1979695 857.113924 45.1979695 857.113924 50.8477157 855.493671 50.8477157"></polygon>
            <polygon id="Fill-110" fill="#D6D6D6" mask="url(#mask-2)" points="855.493671 54.0761421 857.113924 54.0761421 857.113924 59.7258883 855.493671 59.7258883"></polygon>
            <polygon id="Fill-111" fill="#D6D6D6" mask="url(#mask-2)" points="855.493671 62.9543147 857.113924 62.9543147 857.113924 68.6040609 855.493671 68.6040609"></polygon>
            <polygon id="Fill-112" fill="#D6D6D6" mask="url(#mask-2)" points="851.443038 27.4416244 853.063291 27.4416244 853.063291 33.0913706 851.443038 33.0913706"></polygon>
            <polygon id="Fill-113" fill="#D6D6D6" mask="url(#mask-2)" points="851.443038 36.319797 853.063291 36.319797 853.063291 41.9695431 851.443038 41.9695431"></polygon>
            <polygon id="Fill-114" fill="#D6D6D6" mask="url(#mask-2)" points="851.443038 45.1979695 853.063291 45.1979695 853.063291 50.8477157 851.443038 50.8477157"></polygon>
            <polygon id="Fill-115" fill="#D6D6D6" mask="url(#mask-2)" points="851.443038 54.0761421 853.063291 54.0761421 853.063291 59.7258883 851.443038 59.7258883"></polygon>
            <polygon id="Fill-116" fill="#D6D6D6" mask="url(#mask-2)" points="851.443038 62.9543147 853.063291 62.9543147 853.063291 68.6040609 851.443038 68.6040609"></polygon>
            <polygon id="Fill-117" fill="#D6D6D6" mask="url(#mask-2)" points="847.392405 27.4416244 849.012658 27.4416244 849.012658 33.0913706 847.392405 33.0913706"></polygon>
            <polygon id="Fill-118" fill="#D6D6D6" mask="url(#mask-2)" points="847.392405 36.319797 849.012658 36.319797 849.012658 41.9695431 847.392405 41.9695431"></polygon>
            <polygon id="Fill-119" fill="#D6D6D6" mask="url(#mask-2)" points="847.392405 45.1979695 849.012658 45.1979695 849.012658 50.8477157 847.392405 50.8477157"></polygon>
            <polygon id="Fill-120" fill="#D6D6D6" mask="url(#mask-2)" points="847.392405 54.0761421 849.012658 54.0761421 849.012658 59.7258883 847.392405 59.7258883"></polygon>
            <polygon id="Fill-121" fill="#D6D6D6" mask="url(#mask-2)" points="847.392405 62.9543147 849.012658 62.9543147 849.012658 68.6040609 847.392405 68.6040609"></polygon>
            <polygon id="Fill-122" fill="#FFFFFF" mask="url(#mask-2)" points="941.367089 30.6700508 962.43038 30.6700508 962.43038 111.380711 941.367089 111.380711"></polygon>
            <path d="M983.493671,111.380711 L962.43038,111.380711 L962.43038,30.6700508 C974.096203,30.6700508 983.493671,40.0324873 983.493671,51.6548223 L983.493671,111.380711 Z" id="Fill-123" fill="#D6D6D6" mask="url(#mask-2)"></path>
            <polygon id="Fill-124" fill="#FFFFFF" mask="url(#mask-2)" points="925.974684 123.48731 975.392405 123.48731 975.392405 159 925.974684 159"></polygon>
            <polygon id="Fill-125" fill="#D6D6D6" mask="url(#mask-2)" points="975.392405 123.48731 1033.72152 123.48731 1033.72152 159 975.392405 159"></polygon>
            <path d="M987.544304,133.979695 L987.544304,133.979695 C986.167089,133.979695 985.113924,135.028934 985.113924,136.401015 L985.113924,159 L989.974684,159 L989.974684,136.401015 C989.974684,135.028934 988.921519,133.979695 987.544304,133.979695" id="Fill-126" fill="#1F67AC" mask="url(#mask-2)"></path>
            <path d="M998.886076,133.979695 L998.886076,133.979695 C997.508861,133.979695 996.455696,135.028934 996.455696,136.401015 L996.455696,159 L1001.31646,159 L1001.31646,136.401015 C1001.31646,135.028934 1000.26329,133.979695 998.886076,133.979695" id="Fill-127" fill="#1F67AC" mask="url(#mask-2)"></path>
            <path d="M1010.22785,133.979695 L1010.22785,133.979695 C1008.85063,133.979695 1007.79747,135.109645 1007.79747,136.401015 L1007.79747,159 L1012.65823,159 L1012.65823,136.401015 C1012.65823,135.028934 1011.60506,133.979695 1010.22785,133.979695" id="Fill-128" fill="#1F67AC" mask="url(#mask-2)"></path>
            <path d="M1021.56962,133.979695 L1021.56962,133.979695 C1020.19241,133.979695 1019.13924,135.028934 1019.13924,136.401015 L1019.13924,159 L1024,159 L1024,136.401015 C1024,135.028934 1022.94684,133.979695 1021.56962,133.979695" id="Fill-129" fill="#1F67AC" mask="url(#mask-2)"></path>
            <path d="M943.797468,133.979695 L943.797468,133.979695 C942.420253,133.979695 941.367089,135.028934 941.367089,136.401015 L941.367089,159 L946.227848,159 L946.227848,136.401015 C946.227848,135.028934 945.174684,133.979695 943.797468,133.979695" id="Fill-130" fill="#D6D6D6" mask="url(#mask-2)"></path>
            <path d="M955.139241,133.979695 L955.139241,133.979695 C953.762025,133.979695 952.708861,135.028934 952.708861,136.401015 L952.708861,159 L957.56962,159 L957.56962,136.401015 C957.56962,135.028934 956.516456,133.979695 955.139241,133.979695" id="Fill-131" fill="#D6D6D6" mask="url(#mask-2)"></path>
            <path d="M966.481013,133.979695 L966.481013,133.979695 C965.103797,133.979695 964.050633,135.028934 964.050633,136.401015 L964.050633,159 L968.911392,159 L968.911392,136.401015 C968.911392,135.028934 967.858228,133.979695 966.481013,133.979695" id="Fill-132" fill="#D6D6D6" mask="url(#mask-2)"></path>
            <path d="M605.164557,130.751269 L605.164557,127.522843 L609.21519,127.522843 C612.941772,127.522843 616.263291,125.98934 618.936709,123.48731 L620.556962,121.873096 L628.658228,121.873096 L628.658228,130.751269 L605.164557,130.751269 Z" id="Fill-133" fill="#9ED79F" mask="url(#mask-2)"></path>
            <path d="M688.607595,130.751269 L688.607595,127.522843 L685.367089,127.522843 C681.640506,127.522843 677.427848,126.070051 674.835443,123.48731 L673.21519,121.873096 L628.658228,121.873096 L628.658228,130.751269 L688.607595,130.751269 Z" id="Fill-134" fill="#1F67AC" mask="url(#mask-2)"></path>
            <path d="M975.392405,123.48731 L1033.72152,123.48731 C1025.70127,115.335533 1015.08861,111.380711 1004.55696,111.380711 C993.944304,111.380711 983.412658,115.496954 975.392405,123.48731" id="Fill-135" fill="#1F67AC" mask="url(#mask-2)"></path>
            <polygon id="Fill-136" fill="#D6D6D6" mask="url(#mask-2)" points="1069.36709 159 1033.72152 123.48731 1033.72152 159"></polygon>
            <polygon id="Fill-137" fill="#D6D6D6" mask="url(#mask-2)" points="941.367089 54.8832487 962.43038 54.8832487 962.43038 56.4974619 941.367089 56.4974619"></polygon>
            <polygon id="Fill-138" fill="#D6D6D6" mask="url(#mask-2)" points="941.367089 59.7258883 962.43038 59.7258883 962.43038 61.3401015 941.367089 61.3401015"></polygon>
            <polygon id="Fill-139" fill="#D6D6D6" mask="url(#mask-2)" points="941.367089 64.5685279 962.43038 64.5685279 962.43038 66.1827411 941.367089 66.1827411"></polygon>
            <polygon id="Fill-140" fill="#D6D6D6" mask="url(#mask-2)" points="941.367089 69.4111675 962.43038 69.4111675 962.43038 71.0253807 941.367089 71.0253807"></polygon>
            <polygon id="Fill-141" fill="#D6D6D6" mask="url(#mask-2)" points="941.367089 74.2538071 962.43038 74.2538071 962.43038 75.8680203 941.367089 75.8680203"></polygon>
            <polygon id="Fill-142" fill="#D6D6D6" mask="url(#mask-2)" points="941.367089 79.0964467 962.43038 79.0964467 962.43038 80.7106599 941.367089 80.7106599"></polygon>
            <polygon id="Fill-143" fill="#D6D6D6" mask="url(#mask-2)" points="941.367089 83.9390863 962.43038 83.9390863 962.43038 85.5532995 941.367089 85.5532995"></polygon>
            <polygon id="Fill-144" fill="#D6D6D6" mask="url(#mask-2)" points="941.367089 88.7817259 962.43038 88.7817259 962.43038 90.3959391 941.367089 90.3959391"></polygon>
            <polygon id="Fill-145" fill="#1F67AC" mask="url(#mask-2)" points="962.43038 54.8832487 983.493671 54.8832487 983.493671 56.4974619 962.43038 56.4974619"></polygon>
            <polygon id="Fill-146" fill="#1F67AC" mask="url(#mask-2)" points="962.43038 59.7258883 983.493671 59.7258883 983.493671 61.3401015 962.43038 61.3401015"></polygon>
            <polygon id="Fill-147" fill="#1F67AC" mask="url(#mask-2)" points="962.43038 64.5685279 983.493671 64.5685279 983.493671 66.1827411 962.43038 66.1827411"></polygon>
            <polygon id="Fill-148" fill="#1F67AC" mask="url(#mask-2)" points="962.43038 69.4111675 983.493671 69.4111675 983.493671 71.0253807 962.43038 71.0253807"></polygon>
            <polygon id="Fill-149" fill="#1F67AC" mask="url(#mask-2)" points="962.43038 74.2538071 983.493671 74.2538071 983.493671 75.8680203 962.43038 75.8680203"></polygon>
            <polygon id="Fill-150" fill="#1F67AC" mask="url(#mask-2)" points="962.43038 79.0964467 983.493671 79.0964467 983.493671 80.7106599 962.43038 80.7106599"></polygon>
            <polygon id="Fill-151" fill="#1F67AC" mask="url(#mask-2)" points="962.43038 83.9390863 983.493671 83.9390863 983.493671 85.5532995 962.43038 85.5532995"></polygon>
            <polygon id="Fill-152" fill="#1F67AC" mask="url(#mask-2)" points="962.43038 88.7817259 983.493671 88.7817259 983.493671 90.3959391 962.43038 90.3959391"></polygon>
            <path d="M962.43038,30.6700508 L962.43038,51.6548223 L983.493671,51.6548223 C983.493671,39.9517766 973.853165,30.6700508 962.43038,30.6700508" id="Fill-153" fill="#000000" mask="url(#mask-2)"></path>
            <polygon id="Fill-154" fill="#D6D6D6" mask="url(#mask-2)" points="1097.72152 130.751269 1126.07595 130.751269 1126.07595 159 1097.72152 159"></polygon>
            <polygon id="Fill-155" fill="#000000" mask="url(#mask-2)" points="1097.72152 130.751269 1126.07595 130.751269 1126.07595 159 1097.72152 159"></polygon>
            <polygon id="Fill-156" fill="#9ED79F" mask="url(#mask-2)" points="1097.72152 130.751269 1076.65823 130.751269 1087.18987 120.258883"></polygon>
            <polygon id="Fill-157" fill="#1F67AC" mask="url(#mask-2)" points="1115.5443 120.258883 1087.18987 120.258883 1097.72152 130.751269 1126.07595 130.751269"></polygon>
            <path d="M716.151899,144.472081 L716.151899,146.086294 C716.151899,147.135533 715.422785,148.104061 714.774684,148.749746 L713.15443,150.363959 C713.073418,150.44467 712.992405,150.525381 712.911392,150.606091 L712.911392,144.472081 L711.291139,144.472081 L711.291139,159 L712.911392,159 L712.911392,154.560914 C712.911392,153.592386 713.559494,152.220305 714.288608,151.493909 L715.908861,149.879695 C716.718987,149.072589 717.772152,147.700508 717.772152,146.086294 L717.772152,144.472081 L716.151899,144.472081 Z" id="Fill-158" fill="#1F67AC" mask="url(#mask-2)"></path>
            <polygon id="Fill-159" fill="#1F67AC" mask="url(#mask-2)" points="778.531646 150.121827 780.151899 150.121827 780.151899 159 778.531646 159"></polygon>
            <polygon id="Fill-160" fill="#1F67AC" mask="url(#mask-2)" points="594.632911 150.121827 596.253165 150.121827 596.253165 159 594.632911 159"></polygon>
            <polygon id="Fill-161" fill="#D6D6D6" mask="url(#mask-2)" points="800.405063 50.8477157 828.759494 50.8477157 828.759494 53.2690355 800.405063 53.2690355"></polygon>
            <path d="M413.164557,159 C403.767089,159 395.098734,155.28731 388.455696,148.588325 C380.435443,140.59797 369.417722,135.593909 358.075949,135.593909 L327.291139,135.593909 C320.810127,135.593909 314.896203,133.737563 310.278481,129.137056 C305.660759,124.536548 298.936709,121.873096 292.455696,121.873096 L211.443038,121.873096 C202.693671,121.873096 194.187342,118.402538 187.949367,112.187817 C181.711392,105.973096 173.205063,102.502538 164.455696,102.502538 L81.0126582,102.502538 C65.6202532,102.502538 50.6329114,108.555838 39.6962025,119.451777 L0,159 L413.164557,159 Z" id="Fill-162" fill="#000000" mask="url(#mask-2)"></path>
            <path d="M1066.93671,13.7208122 C1081.25408,13.7208122 1092.86076,25.2842284 1092.86076,39.5482234 C1092.86076,53.8122183 1081.25408,65.3756345 1066.93671,65.3756345 C1052.61934,65.3756345 1041.01266,53.8122183 1041.01266,39.5482234 C1041.01266,25.2842284 1052.61934,13.7208122 1066.93671,13.7208122" id="Fill-163" fill="#000000" mask="url(#mask-2)"></path>
            <path d="M1066.93671,21.7918782 C1076.77975,21.7918782 1084.75949,29.7418782 1084.75949,39.5482234 C1084.75949,49.3545685 1076.77975,57.3045685 1066.93671,57.3045685 C1057.09367,57.3045685 1049.11392,49.3545685 1049.11392,39.5482234 C1049.11392,29.7418782 1057.09367,21.7918782 1066.93671,21.7918782" id="Fill-164" fill="#B5D2EE" mask="url(#mask-2)"></path>
            <path d="M1066.93671,25.8274112 C1074.54299,25.8274112 1080.70886,31.9702995 1080.70886,39.5482234 C1080.70886,47.1261472 1074.54299,53.2690355 1066.93671,53.2690355 C1059.33043,53.2690355 1053.16456,47.1261472 1053.16456,39.5482234 C1053.16456,31.9702995 1059.33043,25.8274112 1066.93671,25.8274112" id="Fill-165" fill="#F6F6F6" mask="url(#mask-2)"></path>
            <polygon id="Fill-166" fill="#1F67AC" mask="url(#mask-2)" points="540.35443 121.873096 540.35443 147.700508 541.974684 147.700508 541.974684 123.48731"></polygon>
            <polygon id="Fill-167" fill="#1F67AC" mask="url(#mask-2)" points="546.835443 128.329949 546.835443 147.700508 548.455696 147.700508 548.455696 129.944162"></polygon>
            <polygon id="Fill-168" fill="#1F67AC" mask="url(#mask-2)" points="553.316456 134.786802 553.316456 147.700508 554.936709 147.700508 554.936709 136.401015"></polygon>
            <polygon id="Fill-169" fill="#1F67AC" mask="url(#mask-2)" points="559.797468 141.243655 559.797468 147.700508 561.417722 147.700508 561.417722 142.857868"></polygon>
            <path d="M504.708861,119.451777 L490.288608,119.451777 C485.265823,119.451777 481.21519,123.48731 481.21519,128.491371 L481.21519,159 L504.708861,159 L504.708861,119.451777 Z" id="Fill-170" fill="#FFFFFF" mask="url(#mask-2)"></path>
            <polygon id="Fill-171" fill="#1F67AC" mask="url(#mask-2)" points="571.139241 121.873096 572.759494 121.873096 572.759494 147.700508 571.139241 147.700508"></polygon>
            <polygon id="Fill-172" fill="#1F67AC" mask="url(#mask-2)" points="576.810127 121.873096 578.43038 121.873096 578.43038 147.700508 576.810127 147.700508"></polygon>
            <polygon id="Fill-173" fill="#1F67AC" mask="url(#mask-2)" points="731.544304 38.7411168 737.21519 38.7411168 737.21519 40.3553299 731.544304 40.3553299"></polygon>
            <polygon id="Fill-174" fill="#1F67AC" mask="url(#mask-2)" points="740.455696 38.7411168 746.126582 38.7411168 746.126582 40.3553299 740.455696 40.3553299"></polygon>
            <polygon id="Fill-175" fill="#1F67AC" mask="url(#mask-2)" points="731.544304 43.5837563 737.21519 43.5837563 737.21519 45.1979695 731.544304 45.1979695"></polygon>
            <polygon id="Fill-176" fill="#1F67AC" mask="url(#mask-2)" points="740.455696 43.5837563 746.126582 43.5837563 746.126582 45.1979695 740.455696 45.1979695"></polygon>
            <polygon id="Fill-177" fill="#1F67AC" mask="url(#mask-2)" points="731.544304 48.4263959 737.21519 48.4263959 737.21519 50.0406091 731.544304 50.0406091"></polygon>
            <polygon id="Fill-178" fill="#1F67AC" mask="url(#mask-2)" points="740.455696 48.4263959 746.126582 48.4263959 746.126582 50.0406091 740.455696 50.0406091"></polygon>
            <polygon id="Fill-179" fill="#1F67AC" mask="url(#mask-2)" points="731.544304 53.2690355 737.21519 53.2690355 737.21519 54.8832487 731.544304 54.8832487"></polygon>
            <polygon id="Fill-180" fill="#1F67AC" mask="url(#mask-2)" points="740.455696 53.2690355 746.126582 53.2690355 746.126582 54.8832487 740.455696 54.8832487"></polygon>
            <polygon id="Fill-181" fill="#1F67AC" mask="url(#mask-2)" points="731.544304 58.1116751 737.21519 58.1116751 737.21519 59.7258883 731.544304 59.7258883"></polygon>
            <polygon id="Fill-182" fill="#1F67AC" mask="url(#mask-2)" points="740.455696 58.1116751 746.126582 58.1116751 746.126582 59.7258883 740.455696 59.7258883"></polygon>
            <polygon id="Fill-183" fill="#1F67AC" mask="url(#mask-2)" points="731.544304 62.9543147 737.21519 62.9543147 737.21519 64.5685279 731.544304 64.5685279"></polygon>
            <polygon id="Fill-184" fill="#1F67AC" mask="url(#mask-2)" points="740.455696 62.9543147 746.126582 62.9543147 746.126582 64.5685279 740.455696 64.5685279"></polygon>
            <polygon id="Fill-185" fill="#1F67AC" mask="url(#mask-2)" points="731.544304 67.7969543 737.21519 67.7969543 737.21519 69.4111675 731.544304 69.4111675"></polygon>
            <polygon id="Fill-186" fill="#1F67AC" mask="url(#mask-2)" points="740.455696 67.7969543 746.126582 67.7969543 746.126582 69.4111675 740.455696 69.4111675"></polygon>
            <polygon id="Fill-187" fill="#1F67AC" mask="url(#mask-2)" points="731.544304 72.6395939 737.21519 72.6395939 737.21519 74.2538071 731.544304 74.2538071"></polygon>
            <polygon id="Fill-188" fill="#1F67AC" mask="url(#mask-2)" points="740.455696 72.6395939 746.126582 72.6395939 746.126582 74.2538071 740.455696 74.2538071"></polygon>
            <polygon id="Fill-189" fill="#1F67AC" mask="url(#mask-2)" points="731.544304 77.4822335 737.21519 77.4822335 737.21519 79.0964467 731.544304 79.0964467"></polygon>
            <polygon id="Fill-190" fill="#1F67AC" mask="url(#mask-2)" points="740.455696 77.4822335 746.126582 77.4822335 746.126582 79.0964467 740.455696 79.0964467"></polygon>
            <polygon id="Fill-191" fill="#1F67AC" mask="url(#mask-2)" points="731.544304 82.3248731 737.21519 82.3248731 737.21519 83.9390863 731.544304 83.9390863"></polygon>
            <polygon id="Fill-192" fill="#1F67AC" mask="url(#mask-2)" points="740.455696 82.3248731 746.126582 82.3248731 746.126582 83.9390863 740.455696 83.9390863"></polygon>
            <polygon id="Fill-193" fill="#1F67AC" mask="url(#mask-2)" points="731.544304 87.1675127 737.21519 87.1675127 737.21519 88.7817259 731.544304 88.7817259"></polygon>
            <polygon id="Fill-194" fill="#1F67AC" mask="url(#mask-2)" points="740.455696 87.1675127 746.126582 87.1675127 746.126582 88.7817259 740.455696 88.7817259"></polygon>
            <polygon id="Fill-195" fill="#1F67AC" mask="url(#mask-2)" points="731.544304 92.0101523 737.21519 92.0101523 737.21519 93.6243655 731.544304 93.6243655"></polygon>
            <polygon id="Fill-196" fill="#1F67AC" mask="url(#mask-2)" points="740.455696 92.0101523 746.126582 92.0101523 746.126582 93.6243655 740.455696 93.6243655"></polygon>
            <polygon id="Fill-197" fill="#1F67AC" mask="url(#mask-2)" points="731.544304 96.8527919 737.21519 96.8527919 737.21519 98.4670051 731.544304 98.4670051"></polygon>
            <polygon id="Fill-198" fill="#1F67AC" mask="url(#mask-2)" points="740.455696 96.8527919 746.126582 96.8527919 746.126582 98.4670051 740.455696 98.4670051"></polygon>
            <polygon id="Fill-199" fill="#1F67AC" mask="url(#mask-2)" points="731.544304 101.695431 737.21519 101.695431 737.21519 103.309645 731.544304 103.309645"></polygon>
            <polygon id="Fill-200" fill="#1F67AC" mask="url(#mask-2)" points="740.455696 101.695431 746.126582 101.695431 746.126582 103.309645 740.455696 103.309645"></polygon>
            <polygon id="Fill-201" fill="#1F67AC" mask="url(#mask-2)" points="731.544304 106.538071 737.21519 106.538071 737.21519 108.152284 731.544304 108.152284"></polygon>
            <polygon id="Fill-202" fill="#1F67AC" mask="url(#mask-2)" points="740.455696 106.538071 746.126582 106.538071 746.126582 108.152284 740.455696 108.152284"></polygon>
            <polygon id="Fill-203" fill="#1F67AC" mask="url(#mask-2)" points="731.544304 111.380711 737.21519 111.380711 737.21519 112.994924 731.544304 112.994924"></polygon>
            <polygon id="Fill-204" fill="#1F67AC" mask="url(#mask-2)" points="740.455696 111.380711 746.126582 111.380711 746.126582 112.994924 740.455696 112.994924"></polygon>
            <polygon id="Fill-205" fill="#1F67AC" mask="url(#mask-2)" points="731.544304 116.22335 737.21519 116.22335 737.21519 117.837563 731.544304 117.837563"></polygon>
            <polygon id="Fill-206" fill="#1F67AC" mask="url(#mask-2)" points="740.455696 116.22335 746.126582 116.22335 746.126582 117.837563 740.455696 117.837563"></polygon>
            <polygon id="Fill-207" fill="#1F67AC" mask="url(#mask-2)" points="925.974684 111.380711 941.367089 111.380711 941.367089 123.48731 925.974684 123.48731"></polygon>
            <path d="M1004.55696,111.380711 L941.367089,111.380711 L941.367089,123.48731 L975.392405,123.48731 C983.412658,115.496954 993.944304,111.380711 1004.55696,111.380711" id="Fill-208" fill="#9ED79F" mask="url(#mask-2)"></path>
            <polygon id="Fill-209" fill="#D6D6D6" mask="url(#mask-2)" points="1097.72152 139.629442 1087.18987 139.629442 1087.18987 92.8172589 1066.12658 92.8172589 1066.12658 159 1097.72152 159"></polygon>
            <polygon id="Fill-210" fill="#1F67AC" mask="url(#mask-2)" points="1082.32911 96.8527919 1083.94937 96.8527919 1083.94937 102.502538 1082.32911 102.502538"></polygon>
            <polygon id="Fill-211" fill="#1F67AC" mask="url(#mask-2)" points="1075.8481 96.8527919 1077.46835 96.8527919 1077.46835 102.502538 1075.8481 102.502538"></polygon>
            <polygon id="Fill-212" fill="#1F67AC" mask="url(#mask-2)" points="1069.36709 96.8527919 1070.98734 96.8527919 1070.98734 102.502538 1069.36709 102.502538"></polygon>
            <polygon id="Fill-213" fill="#1F67AC" mask="url(#mask-2)" points="1082.32911 107.345178 1083.94937 107.345178 1083.94937 112.994924 1082.32911 112.994924"></polygon>
            <polygon id="Fill-214" fill="#1F67AC" mask="url(#mask-2)" points="1075.8481 107.345178 1077.46835 107.345178 1077.46835 112.994924 1075.8481 112.994924"></polygon>
            <polygon id="Fill-215" fill="#1F67AC" mask="url(#mask-2)" points="1069.36709 107.345178 1070.98734 107.345178 1070.98734 112.994924 1069.36709 112.994924"></polygon>
            <polygon id="Fill-216" fill="#1F67AC" mask="url(#mask-2)" points="1082.32911 117.837563 1083.94937 117.837563 1083.94937 123.48731 1082.32911 123.48731"></polygon>
            <polygon id="Fill-217" fill="#1F67AC" mask="url(#mask-2)" points="1075.8481 117.837563 1077.46835 117.837563 1077.46835 123.48731 1075.8481 123.48731"></polygon>
            <polygon id="Fill-218" fill="#1F67AC" mask="url(#mask-2)" points="1069.36709 117.837563 1070.98734 117.837563 1070.98734 123.48731 1069.36709 123.48731"></polygon>
            <path d="M685.367089,127.522843 L688.607595,127.522843 L688.607595,92.0101523 L678.886076,92.0101523 L678.886076,126.150761 C680.911392,127.038579 683.260759,127.522843 685.367089,127.522843" id="Fill-219" fill="#000000" mask="url(#mask-2)"></path>
            <path d="M674.835443,123.48731 C675.807595,124.455838 677.022785,125.262944 678.318987,125.908629 L678.886076,125.908629 L678.886076,0 L654.582278,0 L654.582278,69.4111675 L628.658228,69.4111675 L628.658228,121.873096 L673.21519,121.873096 L674.835443,123.48731 Z" id="Fill-220" fill="#D6D6D6" mask="url(#mask-2)"></path>
            <polygon id="Fill-221" fill="#D6D6D6" mask="url(#mask-2)" points="594.632911 75.0609137 628.658228 75.0609137 628.658228 76.6751269 594.632911 76.6751269"></polygon>
            <polygon id="Fill-222" fill="#D6D6D6" mask="url(#mask-2)" points="594.632911 79.9035533 628.658228 79.9035533 628.658228 81.5177665 594.632911 81.5177665"></polygon>
            <polygon id="Fill-223" fill="#D6D6D6" mask="url(#mask-2)" points="594.632911 84.7461929 628.658228 84.7461929 628.658228 86.3604061 594.632911 86.3604061"></polygon>
            <polygon id="Fill-224" fill="#D6D6D6" mask="url(#mask-2)" points="594.632911 89.5888325 628.658228 89.5888325 628.658228 91.2030457 594.632911 91.2030457"></polygon>
            <polygon id="Fill-225" fill="#D6D6D6" mask="url(#mask-2)" points="594.632911 94.4314721 628.658228 94.4314721 628.658228 96.0456853 594.632911 96.0456853"></polygon>
            <polygon id="Fill-226" fill="#D6D6D6" mask="url(#mask-2)" points="594.632911 99.2741117 628.658228 99.2741117 628.658228 100.888325 594.632911 100.888325"></polygon>
            <polygon id="Fill-227" fill="#D6D6D6" mask="url(#mask-2)" points="594.632911 104.116751 628.658228 104.116751 628.658228 105.730964 594.632911 105.730964"></polygon>
            <polygon id="Fill-228" fill="#D6D6D6" mask="url(#mask-2)" points="594.632911 108.959391 628.658228 108.959391 628.658228 110.573604 594.632911 110.573604"></polygon>
            <polygon id="Fill-229" fill="#1F67AC" mask="url(#mask-2)" points="628.658228 75.0609137 656.202532 75.0609137 656.202532 76.6751269 628.658228 76.6751269"></polygon>
            <polygon id="Fill-230" fill="#1F67AC" mask="url(#mask-2)" points="628.658228 79.9035533 656.202532 79.9035533 656.202532 81.5177665 628.658228 81.5177665"></polygon>
            <polygon id="Fill-231" fill="#1F67AC" mask="url(#mask-2)" points="628.658228 84.7461929 656.202532 84.7461929 656.202532 86.3604061 628.658228 86.3604061"></polygon>
            <polygon id="Fill-232" fill="#1F67AC" mask="url(#mask-2)" points="628.658228 89.5888325 656.202532 89.5888325 656.202532 91.2030457 628.658228 91.2030457"></polygon>
            <polygon id="Fill-233" fill="#1F67AC" mask="url(#mask-2)" points="628.658228 94.4314721 656.202532 94.4314721 656.202532 96.0456853 628.658228 96.0456853"></polygon>
            <polygon id="Fill-234" fill="#1F67AC" mask="url(#mask-2)" points="628.658228 99.2741117 656.202532 99.2741117 656.202532 100.888325 628.658228 100.888325"></polygon>
            <polygon id="Fill-235" fill="#1F67AC" mask="url(#mask-2)" points="628.658228 104.116751 656.202532 104.116751 656.202532 105.730964 628.658228 105.730964"></polygon>
            <polygon id="Fill-236" fill="#1F67AC" mask="url(#mask-2)" points="628.658228 108.959391 656.202532 108.959391 656.202532 110.573604 628.658228 110.573604"></polygon>
            <polygon id="Fill-237" fill="#1F67AC" mask="url(#mask-2)" points="661.063291 0 662.683544 0 662.683544 110.573604 661.063291 110.573604"></polygon>
            <polygon id="Fill-238" fill="#1F67AC" mask="url(#mask-2)" points="665.924051 0 667.544304 0 667.544304 110.573604 665.924051 110.573604"></polygon>
            <polygon id="Fill-239" fill="#1F67AC" mask="url(#mask-2)" points="670.78481 0 672.405063 0 672.405063 110.573604 670.78481 110.573604"></polygon>
            <polygon id="Fill-240" fill="#FFFFFF" mask="url(#mask-2)" points="537.924051 119.451777 566.278481 119.451777 566.278481 147.700508"></polygon>
            <polygon id="Fill-241" fill="#D6D6D6" mask="url(#mask-2)" points="541.974684 123.48731 541.974684 121.873096 540.35443 121.873096"></polygon>
            <polygon id="Fill-242" fill="#D6D6D6" mask="url(#mask-2)" points="548.455696 129.944162 548.455696 121.873096 546.835443 121.873096 546.835443 128.329949"></polygon>
            <polygon id="Fill-243" fill="#D6D6D6" mask="url(#mask-2)" points="554.936709 136.401015 554.936709 121.873096 553.316456 121.873096 553.316456 134.786802"></polygon>
            <polygon id="Fill-244" fill="#D6D6D6" mask="url(#mask-2)" points="561.417722 142.857868 561.417722 121.873096 559.797468 121.873096 559.797468 141.243655"></polygon>
            <polygon id="Fill-245" fill="#000000" mask="url(#mask-2)" points="925.974684 58.1116751 941.367089 58.1116751 941.367089 111.380711 925.974684 111.380711"></polygon>
            <polygon id="Fill-246" fill="#D6D6D6" mask="url(#mask-2)" points="876.556962 23.4060914 876.556962 20.9847716 862.78481 20.9847716 862.78481 23.4060914 864.405063 23.4060914 864.405063 87.9746193 849.822785 73.4467005 844.151899 73.4467005 844.151899 68.6040609 800.405063 68.6040609 800.405063 73.4467005 789.873418 73.4467005 789.873418 159 870.886076 159 870.886076 137.208122 826.329114 92.8172589 878.987342 92.8172589 878.987342 23.4060914"></polygon>
            <polygon id="Fill-247" fill="#1F67AC" mask="url(#mask-2)" points="874.936709 27.4416244 876.556962 27.4416244 876.556962 33.0913706 874.936709 33.0913706"></polygon>
            <polygon id="Fill-248" fill="#1F67AC" mask="url(#mask-2)" points="874.936709 36.319797 876.556962 36.319797 876.556962 41.9695431 874.936709 41.9695431"></polygon>
            <polygon id="Fill-249" fill="#1F67AC" mask="url(#mask-2)" points="870.886076 27.4416244 872.506329 27.4416244 872.506329 33.0913706 870.886076 33.0913706"></polygon>
            <polygon id="Fill-250" fill="#1F67AC" mask="url(#mask-2)" points="870.886076 36.319797 872.506329 36.319797 872.506329 41.9695431 870.886076 41.9695431"></polygon>
            <polygon id="Fill-251" fill="#1F67AC" mask="url(#mask-2)" points="866.835443 27.4416244 868.455696 27.4416244 868.455696 33.0913706 866.835443 33.0913706"></polygon>
            <polygon id="Fill-252" fill="#1F67AC" mask="url(#mask-2)" points="866.835443 36.319797 868.455696 36.319797 868.455696 41.9695431 866.835443 41.9695431"></polygon>
            <polygon id="Fill-253" fill="#1F67AC" mask="url(#mask-2)" points="789.873418 79.0964467 849.822785 79.0964467 849.822785 80.7106599 789.873418 80.7106599"></polygon>
            <polygon id="Fill-254" fill="#1F67AC" mask="url(#mask-2)" points="789.873418 83.9390863 849.822785 83.9390863 849.822785 85.5532995 789.873418 85.5532995"></polygon>
            <polygon id="Fill-255" fill="#1F67AC" mask="url(#mask-2)" points="789.873418 88.7817259 849.822785 88.7817259 849.822785 90.3959391 789.873418 90.3959391"></polygon>
            <polygon id="Fill-256" fill="#1F67AC" mask="url(#mask-2)" points="789.873418 93.6243655 826.329114 93.6243655 826.329114 95.2385787 789.873418 95.2385787"></polygon>
            <polygon id="Fill-257" fill="#1F67AC" mask="url(#mask-2)" points="789.873418 98.4670051 826.329114 98.4670051 826.329114 100.081218 789.873418 100.081218"></polygon>
            <polygon id="Fill-258" fill="#1F67AC" mask="url(#mask-2)" points="789.873418 103.309645 826.329114 103.309645 826.329114 104.923858 789.873418 104.923858"></polygon>
            <polygon id="Fill-259" fill="#1F67AC" mask="url(#mask-2)" points="789.873418 108.152284 826.329114 108.152284 826.329114 109.766497 789.873418 109.766497"></polygon>
            <polygon id="Fill-260" fill="#1F67AC" mask="url(#mask-2)" points="789.873418 112.994924 826.329114 112.994924 826.329114 114.609137 789.873418 114.609137"></polygon>
            <path d="M846.01519,128.007107 C845.043038,127.038579 843.341772,127.845685 843.341772,129.137056 L843.341772,138.015228 L833.053165,128.007107 C832.081013,127.038579 830.379747,127.845685 830.379747,129.137056 L830.379747,138.015228 L830.298734,138.015228 L830.379747,138.015228 L820.091139,128.007107 C819.118987,127.038579 817.417722,127.845685 817.417722,129.137056 L817.417722,138.015228 L807.129114,128.007107 C806.156962,127.038579 804.455696,127.764975 804.455696,129.137056 L804.455696,159 L856.303797,159 L856.303797,138.015228 L846.01519,128.007107 Z" id="Fill-261" fill="#FFFFFF" mask="url(#mask-2)"></path>
            <polygon id="Fill-262" fill="#D6D6D6" mask="url(#mask-2)" points="807.696203 142.857868 813.367089 142.857868 813.367089 144.472081 807.696203 144.472081"></polygon>
            <polygon id="Fill-263" fill="#D6D6D6" mask="url(#mask-2)" points="816.607595 142.857868 822.278481 142.857868 822.278481 144.472081 816.607595 144.472081"></polygon>
            <polygon id="Fill-264" fill="#D6D6D6" mask="url(#mask-2)" points="825.518987 142.857868 831.189873 142.857868 831.189873 144.472081 825.518987 144.472081"></polygon>
            <polygon id="Fill-265" fill="#D6D6D6" mask="url(#mask-2)" points="834.43038 142.857868 840.101266 142.857868 840.101266 144.472081 834.43038 144.472081"></polygon>
            <polygon id="Fill-266" fill="#D6D6D6" mask="url(#mask-2)" points="807.696203 147.700508 813.367089 147.700508 813.367089 149.314721 807.696203 149.314721"></polygon>
            <polygon id="Fill-267" fill="#D6D6D6" mask="url(#mask-2)" points="816.607595 147.700508 822.278481 147.700508 822.278481 149.314721 816.607595 149.314721"></polygon>
            <polygon id="Fill-268" fill="#D6D6D6" mask="url(#mask-2)" points="825.518987 147.700508 831.189873 147.700508 831.189873 149.314721 825.518987 149.314721"></polygon>
            <polygon id="Fill-269" fill="#D6D6D6" mask="url(#mask-2)" points="834.43038 147.700508 840.101266 147.700508 840.101266 149.314721 834.43038 149.314721"></polygon>
            <polygon id="Fill-270" fill="#D6D6D6" mask="url(#mask-2)" points="807.696203 152.543147 813.367089 152.543147 813.367089 154.15736 807.696203 154.15736"></polygon>
            <polygon id="Fill-271" fill="#D6D6D6" mask="url(#mask-2)" points="816.607595 152.543147 822.278481 152.543147 822.278481 154.15736 816.607595 154.15736"></polygon>
            <polygon id="Fill-272" fill="#D6D6D6" mask="url(#mask-2)" points="825.518987 152.543147 831.189873 152.543147 831.189873 154.15736 825.518987 154.15736"></polygon>
            <polygon id="Fill-273" fill="#D6D6D6" mask="url(#mask-2)" points="834.43038 152.543147 840.101266 152.543147 840.101266 154.15736 834.43038 154.15736"></polygon>
            <polygon id="Fill-274" fill="#1F67AC" mask="url(#mask-2)" points="861.164557 142.857868 866.835443 142.857868 866.835443 144.472081 861.164557 144.472081"></polygon>
            <polygon id="Fill-275" fill="#1F67AC" mask="url(#mask-2)" points="861.164557 147.700508 866.835443 147.700508 866.835443 149.314721 861.164557 149.314721"></polygon>
            <polygon id="Fill-276" fill="#1F67AC" mask="url(#mask-2)" points="861.164557 152.543147 866.835443 152.543147 866.835443 154.15736 861.164557 154.15736"></polygon>
            <polygon id="Fill-277" fill="#D6D6D6" mask="url(#mask-2)" points="843.341772 118.64467 844.962025 118.64467 844.962025 124.294416 843.341772 124.294416"></polygon>
            <polygon id="Fill-278" fill="#D6D6D6" mask="url(#mask-2)" points="836.860759 118.64467 838.481013 118.64467 838.481013 124.294416 836.860759 124.294416"></polygon>
            <polygon id="Fill-279" fill="#D6D6D6" mask="url(#mask-2)" points="830.379747 118.64467 832 118.64467 832 124.294416 830.379747 124.294416"></polygon>
            <polygon id="Fill-280" fill="#1F67AC" mask="url(#mask-2)" points="849.822785 118.64467 851.443038 118.64467 851.443038 124.294416 849.822785 124.294416"></polygon>
            <polygon id="Fill-281" fill="#1F67AC" mask="url(#mask-2)" points="843.341772 118.64467 844.962025 118.64467 844.962025 124.294416 843.341772 124.294416"></polygon>
            <polygon id="Fill-282" fill="#1F67AC" mask="url(#mask-2)" points="836.860759 118.64467 838.481013 118.64467 838.481013 124.294416 836.860759 124.294416"></polygon>
            <polygon id="Fill-283" fill="#1F67AC" mask="url(#mask-2)" points="830.379747 118.64467 832 118.64467 832 124.294416 830.379747 124.294416"></polygon>
            <polygon id="Fill-284" fill="#D6D6D6" mask="url(#mask-2)" points="836.860759 108.152284 838.481013 108.152284 838.481013 113.80203 836.860759 113.80203"></polygon>
            <polygon id="Fill-285" fill="#D6D6D6" mask="url(#mask-2)" points="830.379747 108.152284 832 108.152284 832 113.80203 830.379747 113.80203"></polygon>
            <polygon id="Fill-286" fill="#1F67AC" mask="url(#mask-2)" points="836.860759 108.152284 838.481013 108.152284 838.481013 113.80203 836.860759 113.80203"></polygon>
            <polygon id="Fill-287" fill="#1F67AC" mask="url(#mask-2)" points="830.379747 108.152284 832 108.152284 832 113.80203 830.379747 113.80203"></polygon>
            <polygon id="Fill-288" fill="#1F67AC" mask="url(#mask-2)" points="830.379747 97.6598985 830.379747 103.309645 832 103.309645 832 98.4670051 831.189873 97.6598985"></polygon>
            <polygon id="Fill-289" fill="#D6D6D6" mask="url(#mask-2)" points="843.341772 97.6598985 844.962025 97.6598985 844.962025 103.309645 843.341772 103.309645"></polygon>
            <polygon id="Fill-290" fill="#D6D6D6" mask="url(#mask-2)" points="836.860759 97.6598985 838.481013 97.6598985 838.481013 103.309645 836.860759 103.309645"></polygon>
            <polygon id="Fill-291" fill="#D6D6D6" mask="url(#mask-2)" points="844.962025 113.80203 843.341772 112.187817 843.341772 108.152284 844.962025 108.152284"></polygon>
            <polygon id="Fill-292" fill="#1F67AC" mask="url(#mask-2)" points="857.924051 124.294416 856.303797 124.294416 856.303797 122.680203"></polygon>
            <path d="M1114.73418,39.1446701 L1114.73418,39.1446701 C1114.73418,36.7233503 1116.75949,34.7055838 1119.18987,34.7055838 L1160.18228,34.7055838 C1165.28608,34.7055838 1170.22785,32.6878173 1173.87342,29.0558376 C1177.51899,25.4238579 1182.46076,23.4060914 1187.56456,23.4060914 L1215.67595,23.4060914 C1218.99747,23.4060914 1222.15696,22.1147208 1224.50633,19.7741117 C1226.8557,17.4335025 1230.01519,16.142132 1233.33671,16.142132 L1251.64557,16.142132 C1259.26076,16.142132 1265.41772,22.2761421 1265.41772,29.8629442 C1265.41772,37.4497462 1259.26076,43.5837563 1251.64557,43.5837563 L1119.18987,43.5837563 C1116.75949,43.5837563 1114.73418,41.5659898 1114.73418,39.1446701" id="Fill-293" fill="#F6F6F6" mask="url(#mask-2)"></path>
            <polygon id="Fill-294" fill="#000000" mask="url(#mask-2)" points="504.708861 119.451777 537.924051 119.451777 537.924051 159 504.708861 159"></polygon>
            <path d="M1103.39241,76.6751269 L1103.39241,76.6751269 C1103.39241,74.4152284 1105.17468,72.6395939 1107.44304,72.6395939 L1119.83797,72.6395939 C1126.4,72.6395939 1132.8,70.0568528 1137.41772,65.3756345 C1142.11646,60.6944162 1148.43544,58.1116751 1154.99747,58.1116751 L1198.17722,58.1116751 C1204.41519,58.1116751 1209.51899,63.1964467 1209.51899,69.4111675 C1209.51899,75.6258883 1204.41519,80.7106599 1198.17722,80.7106599 L1107.44304,80.7106599 C1105.17468,80.7106599 1103.39241,78.9350254 1103.39241,76.6751269" id="Fill-295" fill="#F6F6F6" mask="url(#mask-2)"></path>
            <polygon id="Fill-296" fill="#FFFFFF" mask="url(#mask-2)" points="1097.72152 130.751269 1076.65823 130.751269 1097.72152 151.736041"></polygon>
            <polygon id="Fill-297" fill="#9ED79F" mask="url(#mask-2)" points="1097.72152 130.751269 1076.65823 130.751269 1087.18987 120.258883"></polygon>
            <polygon id="Fill-298" fill="#D6D6D6" mask="url(#mask-2)" points="1092.86076 133.979695 1094.48101 133.979695 1094.48101 139.629442 1092.86076 139.629442"></polygon>
            <polygon id="Fill-299" fill="#D6D6D6" mask="url(#mask-2)" points="1086.37975 133.979695 1088 133.979695 1088 139.629442 1086.37975 139.629442"></polygon>
            <path d="M1063.6962,159 C1068.71899,159 1074.71392,156.901523 1078.27848,153.350254 C1082.57215,149.072589 1088.40506,146.893401 1094.48101,146.893401 L1110.68354,146.893401 C1114.16709,146.893401 1117.97468,145.279188 1120.40506,142.857868 C1122.02532,141.243655 1123.96962,139.46802 1126.07595,138.822335 L1126.07595,159 L1063.6962,159 Z" id="Fill-300" fill="#000000" mask="url(#mask-2)"></path>
            <polygon id="Fill-301" fill="#1F67AC" mask="url(#mask-2)" points="844.962025 113.80203 843.341772 113.80203 843.341772 109.766497 844.962025 111.380711"></polygon>
            <path d="M598.278481,150.121827 L590.177215,150.121827 C588.637975,150.121827 587.341772,148.830457 587.341772,147.296954 C587.341772,145.763452 588.637975,144.472081 590.177215,144.472081 L591.068354,144.472081 C591.797468,144.472081 592.526582,144.149239 593.012658,143.664975 C593.498734,143.180711 594.227848,142.857868 594.956962,142.857868 L598.278481,142.857868 C600.303797,142.857868 601.924051,144.472081 601.924051,146.489848 C601.924051,148.507614 600.303797,150.121827 598.278481,150.121827" id="Fill-302" fill="#9ED79F" mask="url(#mask-2)"></path>
            <path d="M703.189873,141.647208 L703.189873,141.647208 C703.189873,140.113706 704.486076,138.822335 706.025316,138.822335 C707.321519,138.822335 708.536709,138.338071 709.508861,137.369543 L709.670886,137.208122 C710.724051,136.158883 712.101266,135.593909 713.559494,135.593909 L719.797468,135.593909 C722.227848,135.593909 724.253165,137.611675 724.253165,140.032995 C724.253165,142.454315 722.227848,144.472081 719.797468,144.472081 L706.025316,144.472081 C704.486076,144.472081 703.189873,143.180711 703.189873,141.647208" id="Fill-303" fill="#9ED79F" mask="url(#mask-2)"></path>
            <path d="M774.886076,150.121827 L784.202532,150.121827 C785.579747,150.121827 786.632911,149.072589 786.632911,147.700508 C786.632911,146.328426 785.579747,145.279188 784.202532,145.279188 L783.473418,145.279188 C782.339241,145.279188 781.367089,144.875635 780.556962,144.068528 C779.746835,143.261421 778.693671,142.857868 777.640506,142.857868 L774.886076,142.857868 C772.860759,142.857868 771.321519,144.472081 771.321519,146.489848 C771.240506,148.507614 772.860759,150.121827 774.886076,150.121827" id="Fill-304" fill="#9ED79F" mask="url(#mask-2)"></path>
            <polygon id="Fill-305" fill="#D6D6D6" mask="url(#mask-2)" points="832 98.4670051 831.189873 97.6598985 832 97.6598985"></polygon>
            <path d="M906.531646,40.3553299 L887.088608,40.3553299 C878.096203,40.3553299 870.886076,47.5385787 870.886076,56.4974619 L870.886076,159 L906.531646,159 L906.531646,40.3553299 Z" id="Fill-306" fill="#FFFFFF" mask="url(#mask-2)"></path>
            <polygon id="Fill-307" fill="#D6D6D6" mask="url(#mask-2)" points="884.658228 46.8121827 886.278481 46.8121827 886.278481 92.8172589 884.658228 92.8172589"></polygon>
            <polygon id="Fill-308" fill="#D6D6D6" mask="url(#mask-2)" points="890.329114 46.8121827 891.949367 46.8121827 891.949367 92.8172589 890.329114 92.8172589"></polygon>
            <polygon id="Fill-309" fill="#D6D6D6" mask="url(#mask-2)" points="897.620253 97.6598985 896 96.0456853 896 46.8121827 897.620253 46.8121827"></polygon>
            <polygon id="Fill-310" fill="#D6D6D6" mask="url(#mask-2)" points="903.291139 103.309645 901.670886 101.695431 901.670886 46.8121827 903.291139 46.8121827"></polygon>
            <polygon id="Fill-311" fill="#D6D6D6" mask="url(#mask-2)" points="925.974684 123.48731 925.974684 40.3553299 906.531646 40.3553299 906.531646 105.730964 893.56962 92.8172589 870.886076 92.8172589 870.886076 159 892.759494 159 906.531646 159 925.974684 159 961.620253 159"></polygon>
            <polygon id="Fill-312" fill="#1F67AC" mask="url(#mask-2)" points="897.620253 121.873096 896 121.873096 896 95.2385787 897.620253 96.8527919"></polygon>
            <polygon id="Fill-313" fill="#1F67AC" mask="url(#mask-2)" points="903.291139 121.873096 901.670886 121.873096 901.670886 100.888325 903.291139 102.502538"></polygon>
            <polygon id="Fill-314" fill="#1F67AC" mask="url(#mask-2)" points="889.518987 97.6598985 891.139241 97.6598985 891.139241 103.309645 889.518987 103.309645"></polygon>
            <polygon id="Fill-315" fill="#1F67AC" mask="url(#mask-2)" points="883.037975 97.6598985 884.658228 97.6598985 884.658228 103.309645 883.037975 103.309645"></polygon>
            <polygon id="Fill-316" fill="#1F67AC" mask="url(#mask-2)" points="876.556962 97.6598985 878.177215 97.6598985 878.177215 103.309645 876.556962 103.309645"></polygon>
            <polygon id="Fill-317" fill="#1F67AC" mask="url(#mask-2)" points="889.518987 108.152284 891.139241 108.152284 891.139241 113.80203 889.518987 113.80203"></polygon>
            <polygon id="Fill-318" fill="#1F67AC" mask="url(#mask-2)" points="883.037975 108.152284 884.658228 108.152284 884.658228 113.80203 883.037975 113.80203"></polygon>
            <polygon id="Fill-319" fill="#1F67AC" mask="url(#mask-2)" points="876.556962 108.152284 878.177215 108.152284 878.177215 113.80203 876.556962 113.80203"></polygon>
            <polygon id="Fill-320" fill="#1F67AC" mask="url(#mask-2)" points="889.518987 118.64467 891.139241 118.64467 891.139241 124.294416 889.518987 124.294416"></polygon>
            <polygon id="Fill-321" fill="#1F67AC" mask="url(#mask-2)" points="883.037975 118.64467 884.658228 118.64467 884.658228 124.294416 883.037975 124.294416"></polygon>
            <polygon id="Fill-322" fill="#1F67AC" mask="url(#mask-2)" points="876.556962 118.64467 878.177215 118.64467 878.177215 124.294416 876.556962 124.294416"></polygon>
            <path d="M892.759494,144.472081 L892.759494,146.086294 C892.759494,147.135533 892.03038,148.104061 891.382278,148.749746 L889.762025,150.363959 C889.681013,150.44467 889.6,150.525381 889.518987,150.606091 L889.518987,144.472081 L887.898734,144.472081 L887.898734,159 L889.518987,159 L889.518987,154.964467 C889.518987,153.915228 890.167089,152.220305 890.896203,151.493909 L892.516456,149.879695 C893.326582,149.072589 894.379747,147.700508 894.379747,146.086294 L894.379747,144.472081 L892.759494,144.472081 Z" id="Fill-323" fill="#1F67AC" mask="url(#mask-2)"></path>
            <path d="M879.797468,141.727919 L879.797468,141.727919 C879.797468,140.194416 881.093671,138.983756 882.632911,138.983756 L883.605063,138.983756 C884.334177,138.983756 885.063291,138.660914 885.63038,138.17665 L887.412658,136.481726 C887.979747,135.997462 888.627848,135.674619 889.437975,135.674619 L896.405063,135.674619 C898.916456,135.674619 900.941772,137.692386 900.941772,140.113706 C900.941772,142.535025 898.916456,144.552792 896.405063,144.552792 L882.713924,144.552792 C881.093671,144.472081 879.797468,143.261421 879.797468,141.727919" id="Fill-324" fill="#FFFFFF" mask="url(#mask-2)"></path>
            <polygon id="Fill-325" fill="#1F67AC" mask="url(#mask-2)" points="912.202532 150.121827 913.822785 150.121827 913.822785 159 912.202532 159"></polygon>
            <path d="M908.556962,150.121827 L917.873418,150.121827 C919.250633,150.121827 920.303797,149.072589 920.303797,147.700508 C920.303797,146.328426 919.250633,145.279188 917.873418,145.279188 L917.144304,145.279188 C916.010127,145.279188 915.037975,144.875635 914.227848,144.068528 C913.417722,143.261421 912.364557,142.857868 911.311392,142.857868 L908.556962,142.857868 C906.531646,142.857868 904.992405,144.472081 904.992405,146.489848 C904.911392,148.507614 906.531646,150.121827 908.556962,150.121827" id="Fill-326" fill="#FFFFFF" mask="url(#mask-2)"></path>
            <polygon id="Fill-327" fill="#1F67AC" mask="url(#mask-2)" points="912.202532 46.8121827 913.822785 46.8121827 913.822785 121.873096 912.202532 121.873096"></polygon>
            <polygon id="Fill-328" fill="#1F67AC" mask="url(#mask-2)" points="917.873418 46.8121827 919.493671 46.8121827 919.493671 121.873096 917.873418 121.873096"></polygon>
        </g>
    </g>
</svg>