<?xml version="1.0" encoding="utf-8"?>
<!-- Generator: Adobe Illustrator 16.0.0, SVG Export Plug-In . SVG Version: 6.00 Build 0)  -->
<!DOCTYPE svg PUBLIC "-//W3C//DTD SVG 1.1//EN" "http://www.w3.org/Graphics/SVG/1.1/DTD/svg11.dtd">
<svg version="1.1" id="Layer_1" xmlns="http://www.w3.org/2000/svg" xmlns:xlink="http://www.w3.org/1999/xlink" x="0px" y="0px"
	 width="595.279px" height="841.891px" viewBox="0 0 595.279 841.891" enable-background="new 0 0 595.279 841.891"
	 xml:space="preserve">
<path fill="#948F8F" d="M531.5,378.425H499.61v-95.67c0-111.349-90.62-201.97-201.97-201.97c-111.349,0-201.97,90.621-201.97,201.97
	v95.67H63.78C28.569,378.425,0,406.993,0,442.205v255.12c0,35.212,28.568,63.78,63.779,63.78H531.5
	c35.212,0,63.779-28.568,63.779-63.78v-255.12C595.28,406.993,566.712,378.425,531.5,378.425z M393.31,378.425H201.97v-95.67
	c0-52.751,42.919-95.67,95.67-95.67s95.67,42.918,95.67,95.67V378.425z"/>
</svg>
