<?xml version="1.0" encoding="utf-8"?>
<!-- Generator: Adobe Illustrator 16.0.0, SVG Export Plug-In . SVG Version: 6.00 Build 0)  -->
<!DOCTYPE svg PUBLIC "-//W3C//DTD SVG 1.1//EN" "http://www.w3.org/Graphics/SVG/1.1/DTD/svg11.dtd">
<svg version="1.1" id="Layer_1" xmlns="http://www.w3.org/2000/svg" xmlns:xlink="http://www.w3.org/1999/xlink" x="0px" y="0px"
	 width="595.279px" height="841.891px" viewBox="0 0 595.279 841.891" enable-background="new 0 0 595.279 841.891"
	 xml:space="preserve">
<path fill="#948F8F" d="M481.803,0H113.477C69.903,0,34.549,35.353,34.549,78.927v684.036c0,43.574,35.354,78.928,78.928,78.928
	h368.326c43.575,0,78.928-35.354,78.928-78.928V78.927C560.731,35.353,525.378,0,481.803,0z M297.64,789.271
	c-29.104,0-52.618-23.514-52.618-52.617c0-29.104,23.514-52.618,52.618-52.618s52.618,23.514,52.618,52.618
	C350.258,765.758,326.744,789.271,297.64,789.271z M481.803,611.686c0,10.853-8.879,19.732-19.731,19.732H133.208
	c-10.853,0-19.731-8.88-19.731-19.732V98.659c0-10.853,8.879-19.732,19.731-19.732h328.863c10.853,0,19.731,8.879,19.731,19.732
	V611.686z"/>
</svg>
